<?xml version="1.0" encoding="utf-8"?>
<!-- Generator: Adobe Illustrator 23.0.2, SVG Export Plug-In . SVG Version: 6.00 Build 0)  -->
<svg version="1.1" xmlns="http://www.w3.org/2000/svg" xmlns:xlink="http://www.w3.org/1999/xlink" x="0px" y="0px"
	 viewBox="0 0 200 200" style="enable-background:new 0 0 200 200;" xml:space="preserve">
<style type="text/css">
	.st0{fill:#f09833;}
	.st1{display:none;fill:#CCCCCC;}
	.st2{fill:#FFFFFF;}
	.st3{fill:#1A5B94;}
	.st4{fill:#DDDDDD;}
</style>
<g id="Text">
</g>
<g id="Robot">
	<circle class="st1" cx="112.27" cy="92.12" r="92.4"/>
	<g>
		<path class="st0" d="M138.48,133.62c0,21.25-17.23,42.73-38.48,42.73s-38.48-21.48-38.48-42.73s17.23-24.37,38.48-24.37
			S138.48,112.36,138.48,133.62z"/>
	</g>
	<g>
		<g>
			<path class="st0" d="M73.13,94.54c-18.29,0-33.17-14.88-33.17-33.17s14.88-33.17,33.17-33.17h52.23
				c18.29,0,33.17,14.88,33.17,33.17s-14.88,33.17-33.17,33.17H73.13z"/>
		</g>
		<g>
			<path class="st0" d="M125.36,37.21c13.35,0,24.17,10.82,24.17,24.16c0,13.35-10.82,24.16-24.17,24.16H73.13
				c-13.35,0-24.17-10.82-24.17-24.16c0-13.35,10.82-24.16,24.17-24.16H125.36 M125.36,19.2H73.13c-23.25,0-42.17,18.92-42.17,42.17
				c0,23.25,18.92,42.17,42.17,42.17h52.23c23.25,0,42.17-18.92,42.17-42.17C167.53,38.12,148.61,19.2,125.36,19.2L125.36,19.2z"/>
		</g>
	</g>
	<g>
		<g>
			<path class="st2" d="M73.13,96.79c-17.05,0-30.92-13.87-30.92-30.92c0-17.05,13.87-30.92,30.92-30.92h52.23
				c17.05,0,30.92,13.87,30.92,30.92c0,17.05-13.87,30.92-30.92,30.92H73.13z"/>
		</g>
		<g>
			<path class="st0" d="M125.36,41.71c13.35,0,24.17,10.82,24.17,24.16c0,13.35-10.82,24.16-24.17,24.16H73.13
				c-13.35,0-24.17-10.82-24.17-24.16c0-13.35,10.82-24.16,24.17-24.16H125.36 M125.36,28.21H73.13c-20.77,0-37.67,16.9-37.67,37.67
				c0,20.77,16.9,37.67,37.67,37.67h52.23c20.77,0,37.67-16.9,37.67-37.67C163.03,45.1,146.13,28.21,125.36,28.21L125.36,28.21z"/>
		</g>
	</g>
	<g>
		<polygon class="st2" points="73.63,103.33 73.63,88.97 93.69,88.97 		"/>
	</g>
	<g>
		<path class="st3" d="M79.99,65.54c0,3.96-3.21,7.18-7.18,7.18c-3.96,0-7.18-3.21-7.18-7.18c0-3.96,3.21-7.18,7.18-7.18
			C76.78,58.36,79.99,61.57,79.99,65.54z"/>
	</g>
	<g>
		<path class="st3" d="M132.85,65.54c0,3.96-3.21,7.18-7.18,7.18c-3.96,0-7.18-3.21-7.18-7.18c0-3.96,3.21-7.18,7.18-7.18
			C129.64,58.36,132.85,61.57,132.85,65.54z"/>
	</g>
	<g>
		<g>
			<path class="st0" d="M42.66,137.06c0,7.96,6.45,14.41,14.41,14.41v-28.82C49.11,122.65,42.66,129.1,42.66,137.06z"/>
		</g>
		<g>
			<path class="st0" d="M158.08,137.06c0-7.96-6.45-14.41-14.41-14.41v28.82C151.63,151.47,158.08,145.02,158.08,137.06z"/>
		</g>
	</g>
	<g>
		<path class="st3" d="M99.24,78.94c3,0,5.44-2.43,5.44-5.44H93.81C93.81,76.51,96.24,78.94,99.24,78.94z"/>
	</g>
</g>
<g id="Robot_med_skugga">
</g>
</svg>
